<svg xmlns="http://www.w3.org/2000/svg" version="1.1" xmlns:xlink="http://www.w3.org/1999/xlink" xmlns:svgjs="http://svgjs.dev/svgjs" width="1500" height="931" viewBox="0 0 1500 931"><g transform="matrix(1,0,0,1,-0.9090909090909918,-0.2867686039352293)"><svg viewBox="0 0 396 246" data-background-color="#f9e17e" preserveAspectRatio="xMidYMid meet" height="931" width="1500" xmlns="http://www.w3.org/2000/svg" xmlns:xlink="http://www.w3.org/1999/xlink"><g id="tight-bounds" transform="matrix(1,0,0,1,0.2400000000000091,0.07577344421919463)"><svg viewBox="0 0 395.52 245.8484531115616" height="245.8484531115616" width="395.52"><g><svg viewBox="0 0 395.52 245.8484531115616" height="245.8484531115616" width="395.52"><g><svg viewBox="0 0 395.52 245.8484531115616" height="245.8484531115616" width="395.52"><g id="textblocktransform"><svg viewBox="0 0 395.52 245.8484531115616" height="245.8484531115616" width="395.52" id="textblock"><g><svg viewBox="0 0 395.52 203.69345202769537" height="203.69345202769537" width="395.52"><g transform="matrix(1,0,0,1,0,0)"><svg width="395.52" viewBox="1.7499999999999973 -35.550000000000004 151.65000000000003 75.1" height="203.69345202769537" data-palette-color="#454545"><svg></svg><svg></svg><g class="wordmark-text-0" data-fill-palette-color="primary" id="text-0"><path d="M24.4-21.05c0 3.333-0.433 6.64-1.3 9.92-0.867 3.287-2.307 6.047-4.32 8.28-2.02 2.233-4.63 3.35-7.83 3.35v0c-2.967-0.033-5.227-1.217-6.78-3.55-1.547-2.333-2.353-5.367-2.42-9.1v0c0-3.333 0.433-6.643 1.3-9.93 0.867-3.28 2.31-6.037 4.33-8.27 2.013-2.233 4.62-3.35 7.82-3.35v0c2.933 0.033 5.183 1.223 6.75 3.57 1.567 2.353 2.383 5.38 2.45 9.08zM4.9-12.65c0 3.033 0.543 5.473 1.63 7.32 1.08 1.853 2.687 2.78 4.82 2.78v0c2.367 0 4.293-1.027 5.78-3.08 1.48-2.047 2.537-4.47 3.17-7.27 0.633-2.8 0.95-5.35 0.95-7.65v0c0-3.033-0.54-5.477-1.62-7.33-1.087-1.847-2.697-2.77-4.83-2.77v0c-2.367 0-4.29 1.023-5.77 3.07-1.487 2.053-2.547 4.48-3.18 7.28-0.633 2.8-0.95 5.35-0.95 7.65zM51.85-22.15c0.467 0.1 0.793 0.207 0.98 0.32 0.18 0.12 0.27 0.313 0.27 0.58v0c0 0.167-0.017 0.317-0.05 0.45v0l-0.4 1.9c-0.6 2.867-1.083 5.057-1.45 6.57-0.367 1.52-0.817 3.047-1.35 4.58v0c-0.7 2.1-1.433 3.767-2.2 5v0c-1.333 2.1-2.7 3.15-4.1 3.15v0c-0.9 0-1.583-0.643-2.05-1.93-0.467-1.28-0.867-3.137-1.2-5.57v0c-0.1-0.7-0.25-2.367-0.45-5v0c-0.7 2.367-1.307 4.25-1.82 5.65-0.52 1.4-1.13 2.65-1.83 3.75v0c-1.3 2.067-2.683 3.1-4.15 3.1v0c-0.933 0-1.64-0.66-2.12-1.98-0.487-1.313-0.88-3.153-1.18-5.52v0c-0.233-1.767-0.383-3.593-0.45-5.48-0.067-1.88-0.117-4.153-0.15-6.82v0-1.3c0-0.467 0.077-0.8 0.23-1 0.147-0.2 0.537-0.383 1.17-0.55v0c0.6-0.133 0.95-0.2 1.05-0.2v0c0.2 0 0.343 0.073 0.43 0.22 0.08 0.153 0.12 0.397 0.12 0.73v0 1.9c0 3.833 0.127 7.583 0.38 11.25 0.247 3.667 0.62 5.5 1.12 5.5v0c0.3 0 0.7-0.377 1.2-1.13 0.5-0.747 1.017-1.72 1.55-2.92v0c0.833-2 1.883-4.983 3.15-8.95v0l0.45-1.3c0.167-0.5 0.343-0.85 0.53-1.05 0.18-0.2 0.52-0.367 1.02-0.5v0c0.2-0.067 0.433-0.1 0.7-0.1v0c0.267 0 0.433 0.067 0.5 0.2 0.067 0.133 0.1 0.323 0.1 0.57 0 0.253 0.017 0.463 0.05 0.63v0c0.2 2.8 0.367 4.967 0.5 6.5 0.133 1.533 0.35 3.183 0.65 4.95v0c0.3 2.067 0.667 3.1 1.1 3.1v0c0.3 0 0.643-0.31 1.03-0.93 0.38-0.613 0.737-1.32 1.07-2.12v0c0.6-1.5 1.143-3.227 1.63-5.18 0.48-1.947 1.037-4.437 1.67-7.47v0l0.6-2.95c0.1-0.5 0.4-0.75 0.9-0.75v0zM54.65-0.65c0.633-4.7 1.133-8.683 1.5-11.95 0.367-3.267 0.55-6 0.55-8.2v0c0-0.667 0.077-1.093 0.23-1.28 0.147-0.18 0.47-0.32 0.97-0.42v0c0.8-0.133 1.233-0.2 1.3-0.2v0c0.3 0 0.5 0.073 0.6 0.22 0.1 0.153 0.133 0.447 0.1 0.88v0l-0.2 2.8c1.733-2.5 3.75-3.75 6.05-3.75v0c1.3 0 2.393 0.45 3.28 1.35 0.88 0.9 1.32 2.317 1.32 4.25v0c0 1.533-0.073 3.05-0.22 4.55-0.153 1.5-0.397 3.633-0.73 6.4v0l-0.55 4.5c-0.067 0.633-0.19 1.04-0.37 1.22-0.187 0.187-0.497 0.347-0.93 0.48v0c-0.667 0.133-1.067 0.2-1.2 0.2v0c-0.3 0-0.5-0.083-0.6-0.25-0.1-0.167-0.117-0.45-0.05-0.85v0l0.15-1.2c0.967-7.2 1.45-11.883 1.45-14.05v0c0-1.3-0.173-2.243-0.52-2.83-0.353-0.58-0.93-0.87-1.73-0.87v0c-0.867 0-1.75 0.443-2.65 1.33-0.9 0.88-1.683 2.037-2.35 3.47-0.667 1.433-1.1 2.917-1.3 4.45v0l-1.1 8.9c-0.1 0.667-0.223 1.09-0.37 1.27-0.153 0.187-0.447 0.33-0.88 0.43v0c-0.667 0.133-1.067 0.2-1.2 0.2v0c-0.267 0-0.44-0.073-0.52-0.22-0.087-0.153-0.097-0.43-0.03-0.83zM86.55-5.15c0.433 0.3 0.65 0.583 0.65 0.85v0c0 0.2-0.067 0.417-0.2 0.65v0c-0.733 1.3-1.64 2.317-2.72 3.05-1.087 0.733-2.43 1.1-4.03 1.1v0c-2.067-0.033-3.607-0.793-4.62-2.28-1.02-1.48-1.547-3.42-1.58-5.82v0c0-2.7 0.35-5.183 1.05-7.45 0.7-2.267 1.75-4.083 3.15-5.45 1.4-1.367 3.117-2.05 5.15-2.05v0c1.8 0 3.1 0.523 3.9 1.57 0.8 1.053 1.2 2.263 1.2 3.63v0c0 2.4-1.017 4.34-3.05 5.82-2.033 1.487-4.85 2.397-8.45 2.73v0 0.9c0 1.7 0.283 3.05 0.85 4.05 0.567 1 1.45 1.5 2.65 1.5v0c0.933 0 1.677-0.217 2.23-0.65 0.547-0.433 1.103-1.083 1.67-1.95v0c0.267-0.467 0.567-0.7 0.9-0.7v0c0.2 0 0.4 0.05 0.6 0.15v0zM83.15-19.65c-1.6 0-2.867 0.757-3.8 2.27-0.933 1.52-1.6 3.38-2 5.58v0c5.4-0.533 8.1-2.267 8.1-5.2v0c0-1.767-0.767-2.65-2.3-2.65zM94.7-10.4l-1.1 8.9c-0.1 0.667-0.223 1.09-0.37 1.27-0.153 0.187-0.447 0.33-0.88 0.43v0c-0.667 0.133-1.067 0.2-1.2 0.2v0c-0.267 0-0.44-0.073-0.52-0.22-0.087-0.153-0.097-0.43-0.03-0.83v0c0.633-4.7 1.133-8.683 1.5-11.95 0.367-3.267 0.55-6 0.55-8.2v0c0-0.667 0.077-1.093 0.23-1.28 0.147-0.18 0.47-0.32 0.97-0.42v0c0.8-0.133 1.233-0.2 1.3-0.2v0c0.3 0 0.5 0.073 0.6 0.22 0.1 0.153 0.133 0.447 0.1 0.88v0l-0.2 2.8c1.733-2.533 3.75-3.8 6.05-3.8v0c0.433 0 0.733 0.057 0.9 0.17 0.167 0.12 0.25 0.38 0.25 0.78v0c0 0.3-0.017 0.55-0.05 0.75v0c-0.067 0.6-0.19 0.99-0.37 1.17-0.187 0.187-0.547 0.313-1.08 0.38v0c-1.733 0.2-3.183 0.99-4.35 2.37-1.167 1.387-1.933 3.58-2.3 6.58zM140.75-22.05c0.433 0.5 0.65 0.883 0.65 1.15v0c0 0.267-0.15 0.533-0.45 0.8v0c-2.667 2.3-5.033 4.223-7.1 5.77-2.067 1.553-4.017 2.797-5.85 3.73v0l-0.25 2.75c-0.167 2-0.25 4.35-0.25 7.05v0c0 0.333-0.073 0.557-0.22 0.67-0.153 0.12-0.337 0.207-0.55 0.26-0.22 0.047-0.38 0.087-0.48 0.12v0c-0.467 0.067-0.75 0.1-0.85 0.1v0c-0.367 0-0.607-0.1-0.72-0.3-0.12-0.2-0.18-0.567-0.18-1.1v0c0-0.8 0.25-3.583 0.75-8.35v0c-1.6 0.533-3.017 0.8-4.25 0.8v0c-2.167 0-3.94-0.65-5.32-1.95-1.387-1.3-2.08-3.15-2.08-5.55v0c0-1.9 0.393-3.777 1.18-5.63 0.78-1.847 1.88-3.363 3.3-4.55 1.413-1.18 3.003-1.77 4.77-1.77v0c1.867 0 3.233 1.25 4.1 3.75v0l1.2-9.35c0.067-0.633 0.177-1.05 0.33-1.25 0.147-0.2 0.42-0.35 0.82-0.45v0c0.5-0.133 0.917-0.2 1.25-0.2v0c0.267 0 0.45 0.083 0.55 0.25 0.1 0.167 0.117 0.433 0.05 0.8v0c-1.133 7.4-2.067 14.217-2.8 20.45v0c2.967-1.7 6.483-4.433 10.55-8.2v0c0.3-0.3 0.583-0.45 0.85-0.45v0c0.3 0 0.633 0.217 1 0.65zM120.7-11.55c1.4 0 3.033-0.383 4.9-1.15v0l0.3-2.9c0.067-0.933 0.1-1.6 0.1-2v0c0-2.233-0.29-4.06-0.87-5.48-0.587-1.413-1.397-2.12-2.43-2.12v0c-1.2 0-2.273 0.483-3.22 1.45-0.953 0.967-1.687 2.15-2.2 3.55-0.52 1.4-0.78 2.733-0.78 4v0c0 1.533 0.41 2.69 1.23 3.47 0.813 0.787 1.803 1.18 2.97 1.18z" fill="#454545" fill-rule="nonzero" stroke="none" stroke-width="1" stroke-linecap="butt" stroke-linejoin="miter" stroke-miterlimit="10" stroke-dasharray="" stroke-dashoffset="0" font-family="none" font-weight="none" font-size="none" text-anchor="none" style="mix-blend-mode: normal" data-fill-palette-color="primary" opacity="1"></path><path d="M10.35 39.55c-2.667 0-4.75-1.183-6.25-3.55-1.5-2.367-2.283-5.4-2.35-9.1v0c0-3.333 0.433-6.643 1.3-9.93 0.867-3.28 2.31-6.037 4.33-8.27 2.013-2.233 4.62-3.35 7.82-3.35v0c1.9 0.033 3.477 0.607 4.73 1.72 1.247 1.12 2.07 2.713 2.47 4.78v0l0.1 0.65c0 0.267-0.083 0.467-0.25 0.6-0.167 0.133-0.5 0.267-1 0.4v0c-0.367 0.133-0.7 0.2-1 0.2v0c-0.233 0-0.423-0.067-0.57-0.2-0.153-0.133-0.263-0.367-0.33-0.7v0c-0.3-1.5-0.81-2.61-1.53-3.33-0.713-0.713-1.72-1.07-3.02-1.07v0c-2.367 0-4.29 1.023-5.77 3.07-1.487 2.053-2.547 4.48-3.18 7.28-0.633 2.8-0.95 5.35-0.95 7.65v0c0 2.967 0.51 5.383 1.53 7.25 1.013 1.867 2.437 2.8 4.27 2.8v0c1.5-0.033 2.85-0.543 4.05-1.53 1.2-0.98 2.233-2.287 3.1-3.92v0c0.233-0.467 0.533-0.7 0.9-0.7v0c0.233 0 0.567 0.133 1 0.4v0c0.733 0.333 1.1 0.717 1.1 1.15v0c0 0.167-0.05 0.35-0.15 0.55v0c-2.6 4.767-6.05 7.15-10.35 7.15zM40.6 34.9c0.3 0 0.617 0.24 0.95 0.72 0.333 0.487 0.5 0.93 0.5 1.33v0c0 0.267-0.24 0.59-0.72 0.97-0.487 0.387-1.07 0.73-1.75 1.03-0.687 0.3-1.347 0.45-1.98 0.45v0c-0.833 0-1.44-0.377-1.82-1.13-0.387-0.747-0.58-1.603-0.58-2.57v0c-0.8 1.267-1.657 2.217-2.57 2.85-0.92 0.633-1.997 0.95-3.23 0.95v0c-1.6-0.033-2.873-0.817-3.82-2.35-0.953-1.533-1.43-3.65-1.43-6.35v0c0.033-2.5 0.41-4.843 1.13-7.03 0.713-2.18 1.747-3.93 3.1-5.25 1.347-1.313 2.97-1.97 4.87-1.97v0c1.3 0 2.6 0.533 3.9 1.6v0-0.15c0.067-0.667 0.177-1.093 0.33-1.28 0.147-0.18 0.437-0.32 0.87-0.42v0c0.8-0.133 1.233-0.2 1.3-0.2v0c0.333 0 0.55 0.083 0.65 0.25 0.1 0.167 0.117 0.45 0.05 0.85v0c-1.633 10.833-2.45 17.45-2.45 19.85v0c0.5-0.3 1.1-0.8 1.8-1.5v0c0.433-0.433 0.733-0.65 0.9-0.65zM36 27.05c0.467-3.2 0.733-5.25 0.8-6.15v0c-0.533-0.5-1.057-0.877-1.57-1.13-0.52-0.247-1.113-0.37-1.78-0.37v0c-1.533 0-2.767 0.65-3.7 1.95-0.933 1.3-1.59 2.817-1.97 4.55-0.387 1.733-0.597 3.333-0.63 4.8v0c0 3.9 0.983 5.85 2.95 5.85v0c1.4 0 2.643-0.877 3.73-2.63 1.08-1.747 1.803-4.037 2.17-6.87zM48.4 28.65l-1.1 8.9c-0.1 0.667-0.223 1.09-0.37 1.27-0.153 0.187-0.447 0.33-0.88 0.43v0c-0.667 0.133-1.067 0.2-1.2 0.2v0c-0.267 0-0.44-0.073-0.52-0.22-0.087-0.153-0.097-0.43-0.03-0.83v0c0.633-4.7 1.133-8.683 1.5-11.95 0.367-3.267 0.55-6 0.55-8.2v0c0-0.667 0.077-1.093 0.23-1.28 0.147-0.18 0.47-0.32 0.97-0.42v0c0.8-0.133 1.233-0.2 1.3-0.2v0c0.3 0 0.5 0.073 0.6 0.22 0.1 0.153 0.133 0.447 0.1 0.88v0l-0.2 2.8c1.733-2.533 3.75-3.8 6.05-3.8v0c0.433 0 0.733 0.057 0.9 0.17 0.167 0.12 0.25 0.38 0.25 0.78v0c0 0.3-0.017 0.55-0.05 0.75v0c-0.067 0.6-0.19 0.99-0.37 1.17-0.187 0.187-0.547 0.313-1.08 0.38v0c-1.733 0.2-3.183 0.99-4.35 2.37-1.167 1.387-1.933 3.58-2.3 6.58zM69.2 33.9c0.433 0.3 0.65 0.583 0.65 0.85v0c0 0.2-0.067 0.417-0.2 0.65v0c-0.733 1.3-1.64 2.317-2.72 3.05-1.087 0.733-2.43 1.1-4.03 1.1v0c-2.067-0.033-3.607-0.793-4.62-2.28-1.02-1.48-1.547-3.42-1.58-5.82v0c0-2.7 0.35-5.183 1.05-7.45 0.7-2.267 1.75-4.083 3.15-5.45 1.4-1.367 3.117-2.05 5.15-2.05v0c1.8 0 3.1 0.523 3.9 1.57 0.8 1.053 1.2 2.263 1.2 3.63v0c0 2.4-1.017 4.34-3.05 5.82-2.033 1.487-4.85 2.397-8.45 2.73v0 0.9c0 1.7 0.283 3.05 0.85 4.05 0.567 1 1.45 1.5 2.65 1.5v0c0.933 0 1.677-0.217 2.23-0.65 0.547-0.433 1.103-1.083 1.67-1.95v0c0.267-0.467 0.567-0.7 0.9-0.7v0c0.2 0 0.4 0.05 0.6 0.15v0zM65.8 19.4c-1.6 0-2.867 0.757-3.8 2.27-0.933 1.52-1.6 3.38-2 5.58v0c5.4-0.533 8.1-2.267 8.1-5.2v0c0-1.767-0.767-2.65-2.3-2.65zM83.35 16.9c0.467 0 0.783 0.05 0.95 0.15 0.167 0.1 0.25 0.267 0.25 0.5v0c0 0.267-0.033 0.5-0.1 0.7v0c-0.167 0.567-0.373 0.933-0.62 1.1-0.253 0.167-0.747 0.25-1.48 0.25v0h-3.2c-1.033 6.833-1.55 11.517-1.55 14.05v0c0 0.967 0.117 1.717 0.35 2.25 0.233 0.533 0.65 0.8 1.25 0.8v0c0.733 0 1.5-0.333 2.3-1v0c0.3-0.267 0.55-0.4 0.75-0.4v0c0.267 0 0.583 0.233 0.95 0.7v0c0.167 0.2 0.31 0.39 0.43 0.57 0.113 0.187 0.17 0.347 0.17 0.48v0c0 0.2-0.183 0.467-0.55 0.8v0c-1.4 1.133-2.867 1.7-4.4 1.7v0c-1.533-0.033-2.607-0.55-3.22-1.55-0.62-1-0.947-2.35-0.98-4.05v0c0-2.9 0.517-7.683 1.55-14.35v0h-2.35c-0.6 0-1.017-0.05-1.25-0.15-0.233-0.1-0.35-0.3-0.35-0.6v0c0-0.2 0.05-0.467 0.15-0.8v0c0.133-0.533 0.323-0.86 0.57-0.98 0.253-0.113 0.763-0.17 1.53-0.17v0h2.15l1.4-8.15c0.067-0.667 0.177-1.093 0.33-1.28 0.147-0.18 0.437-0.32 0.87-0.42v0c0.8-0.133 1.217-0.2 1.25-0.2v0c0.3 0 0.483 0.073 0.55 0.22 0.067 0.153 0.067 0.447 0 0.88v0c-0.5 2.933-1 5.917-1.5 8.95v0zM102.1 34.9c0.3 0 0.617 0.24 0.95 0.72 0.333 0.487 0.5 0.93 0.5 1.33v0c0 0.267-0.243 0.59-0.73 0.97-0.48 0.387-1.063 0.73-1.75 1.03-0.68 0.3-1.337 0.45-1.97 0.45v0c-0.833 0-1.443-0.377-1.83-1.13-0.38-0.747-0.57-1.603-0.57-2.57v0c-0.8 1.267-1.66 2.217-2.58 2.85-0.913 0.633-1.987 0.95-3.22 0.95v0c-1.6-0.033-2.877-0.817-3.83-2.35-0.947-1.533-1.42-3.65-1.42-6.35v0c0.033-2.5 0.407-4.843 1.12-7.03 0.72-2.18 1.753-3.93 3.1-5.25 1.353-1.313 2.98-1.97 4.88-1.97v0c1.3 0 2.6 0.533 3.9 1.6v0-0.15c0.067-0.667 0.173-1.093 0.32-1.28 0.153-0.18 0.447-0.32 0.88-0.42v0c0.8-0.133 1.233-0.2 1.3-0.2v0c0.333 0 0.55 0.083 0.65 0.25 0.1 0.167 0.117 0.45 0.05 0.85v0c-1.633 10.833-2.45 17.45-2.45 19.85v0c0.5-0.3 1.1-0.8 1.8-1.5v0c0.433-0.433 0.733-0.65 0.9-0.65zM97.5 27.05c0.467-3.2 0.733-5.25 0.8-6.15v0c-0.533-0.5-1.06-0.877-1.58-1.13-0.513-0.247-1.103-0.37-1.77-0.37v0c-1.533 0-2.767 0.65-3.7 1.95-0.933 1.3-1.593 2.817-1.98 4.55-0.38 1.733-0.587 3.333-0.62 4.8v0c0 3.9 0.983 5.85 2.95 5.85v0c1.4 0 2.64-0.877 3.72-2.63 1.087-1.747 1.813-4.037 2.18-6.87zM121.2 35.55c0.3 0 0.573 0.24 0.82 0.72 0.253 0.487 0.38 0.913 0.38 1.28v0c0 0.4-0.433 0.823-1.3 1.27-0.867 0.453-1.8 0.68-2.8 0.68v0c-1.2 0-2.21-0.633-3.03-1.9-0.813-1.267-1.737-3.25-2.77-5.95v0c-0.167-0.4-0.317-0.767-0.45-1.1-0.133-0.333-0.267-0.65-0.4-0.95v0l-0.1-0.4c0-0.333 0.233-0.567 0.7-0.7v0c1.967-0.6 3.55-1.493 4.75-2.68 1.2-1.18 1.8-2.453 1.8-3.82v0c0-0.8-0.217-1.427-0.65-1.88-0.433-0.447-1.1-0.67-2-0.67v0c-1.367 0.033-2.567 0.607-3.6 1.72-1.033 1.12-1.817 2.63-2.35 4.53v0l-0.5 5.5c-0.167 1.833-0.317 4.133-0.45 6.9v0c-0.033 0.467-0.127 0.75-0.28 0.85-0.147 0.1-0.47 0.217-0.97 0.35v0c-0.467 0.067-0.75 0.1-0.85 0.1v0c-0.367 0-0.61-0.1-0.73-0.3-0.113-0.2-0.17-0.567-0.17-1.1v0c0-1.233 0.4-5.46 1.2-12.68 0.8-7.213 1.617-13.853 2.45-19.92v0c0.067-0.633 0.173-1.05 0.32-1.25 0.153-0.2 0.43-0.35 0.83-0.45v0c0.5-0.133 0.917-0.2 1.25-0.2v0c0.267 0 0.45 0.083 0.55 0.25 0.1 0.167 0.117 0.433 0.05 0.8v0c-0.967 6.833-1.633 11.833-2 15v0c0.767-0.967 1.657-1.717 2.67-2.25 1.02-0.533 2.113-0.8 3.28-0.8v0c1.467 0 2.657 0.473 3.57 1.42 0.92 0.953 1.38 2.23 1.38 3.83v0c0 1.933-0.667 3.673-2 5.22-1.333 1.553-2.917 2.68-4.75 3.38v0c0.667 1.8 1.3 3.29 1.9 4.47 0.6 1.187 1.217 1.78 1.85 1.78v0c0.5 0 0.99-0.177 1.47-0.53 0.487-0.347 0.797-0.52 0.93-0.52zM137.1 33.9c0.433 0.3 0.65 0.583 0.65 0.85v0c0 0.2-0.067 0.417-0.2 0.65v0c-0.733 1.3-1.643 2.317-2.73 3.05-1.08 0.733-2.42 1.1-4.02 1.1v0c-2.067-0.033-3.61-0.793-4.63-2.28-1.013-1.48-1.537-3.42-1.57-5.82v0c0-2.7 0.35-5.183 1.05-7.45 0.7-2.267 1.75-4.083 3.15-5.45 1.4-1.367 3.117-2.05 5.15-2.05v0c1.8 0 3.1 0.523 3.9 1.57 0.8 1.053 1.2 2.263 1.2 3.63v0c0 2.4-1.017 4.34-3.05 5.82-2.033 1.487-4.85 2.397-8.45 2.73v0 0.9c0 1.7 0.283 3.05 0.85 4.05 0.567 1 1.45 1.5 2.65 1.5v0c0.933 0 1.673-0.217 2.22-0.65 0.553-0.433 1.113-1.083 1.68-1.95v0c0.267-0.467 0.567-0.7 0.9-0.7v0c0.2 0 0.4 0.05 0.6 0.15v0zM133.7 19.4c-1.6 0-2.867 0.757-3.8 2.27-0.933 1.52-1.6 3.38-2 5.58v0c5.4-0.533 8.1-2.267 8.1-5.2v0c0-1.767-0.767-2.65-2.3-2.65zM145.25 28.65l-1.1 8.9c-0.1 0.667-0.227 1.09-0.38 1.27-0.147 0.187-0.437 0.33-0.87 0.43v0c-0.667 0.133-1.067 0.2-1.2 0.2v0c-0.267 0-0.443-0.073-0.53-0.22-0.08-0.153-0.087-0.43-0.02-0.83v0c0.633-4.7 1.133-8.683 1.5-11.95 0.367-3.267 0.55-6 0.55-8.2v0c0-0.667 0.073-1.093 0.22-1.28 0.153-0.18 0.48-0.32 0.98-0.42v0c0.8-0.133 1.233-0.2 1.3-0.2v0c0.3 0 0.5 0.073 0.6 0.22 0.1 0.153 0.133 0.447 0.1 0.88v0l-0.2 2.8c1.733-2.533 3.75-3.8 6.05-3.8v0c0.433 0 0.733 0.057 0.9 0.17 0.167 0.12 0.25 0.38 0.25 0.78v0c0 0.3-0.017 0.55-0.05 0.75v0c-0.067 0.6-0.193 0.99-0.38 1.17-0.18 0.187-0.537 0.313-1.07 0.38v0c-1.733 0.2-3.183 0.99-4.35 2.37-1.167 1.387-1.933 3.58-2.3 6.58z" fill="#454545" fill-rule="nonzero" stroke="none" stroke-width="1" stroke-linecap="butt" stroke-linejoin="miter" stroke-miterlimit="10" stroke-dasharray="" stroke-dashoffset="0" font-family="none" font-weight="none" font-size="none" text-anchor="none" style="mix-blend-mode: normal" data-fill-palette-color="primary" opacity="1"></path></g></svg></g></svg></g><g transform="matrix(1,0,0,1,0,225.8898826356479)"><svg viewBox="0 0 232.20979199999996 19.95857047591371" height="19.95857047591371" width="232.20979199999996"><g transform="matrix(1,0,0,1,0,0)"><svg width="232.20979199999996" viewBox="2.95 -38.15 447.3 38.45" height="19.95857047591371" data-palette-color="#454545"><path d="M17.15 0.3L17.15 0.3Q13.6 0.3 10.93-0.38 8.25-1.05 6.48-2.95 4.7-4.85 3.83-8.55 2.95-12.25 2.95-18.25L2.95-18.25Q2.95-24.25 3.85-27.98 4.75-31.7 6.55-33.68 8.35-35.65 11-36.38 13.65-37.1 17.15-37.1L17.15-37.1Q20.75-37.1 23.43-36.38 26.1-35.65 27.88-33.68 29.65-31.7 30.5-27.98 31.35-24.25 31.35-18.25L31.35-18.25Q31.35-12.25 30.48-8.55 29.6-4.85 27.83-2.95 26.05-1.05 23.4-0.38 20.75 0.3 17.15 0.3ZM17.15-3.25L17.15-3.25Q19.95-3.25 21.9-3.8 23.85-4.35 25.08-5.93 26.3-7.5 26.85-10.45 27.4-13.4 27.4-18.25L27.4-18.25Q27.4-23.3 26.83-26.35 26.25-29.4 25.03-30.95 23.8-32.5 21.88-33 19.95-33.5 17.15-33.5L17.15-33.5Q14.55-33.5 12.63-33 10.7-32.5 9.43-30.95 8.15-29.4 7.53-26.35 6.9-23.3 6.9-18.25L6.9-18.25Q6.9-13.4 7.43-10.45 7.95-7.5 9.15-5.93 10.35-4.35 12.33-3.8 14.3-3.25 17.15-3.25ZM48.5 0.05L45.1 0.05Q42.8 0.05 41.25-0.78 39.7-1.6 38.9-3.48 38.1-5.35 38.1-8.55L38.1-8.55 38.1-38.15 42.05-38.15 42.05-9.05Q42.05-6.65 42.5-5.43 42.95-4.2 43.8-3.73 44.65-3.25 45.8-3.1L45.8-3.1 48.5-2.8 48.5 0.05ZM56.2-31.45L53.4-31.45Q52.6-31.45 52.6-32.25L52.6-32.25 52.6-36.15Q52.6-36.95 53.4-36.95L53.4-36.95 56.2-36.95Q56.6-36.95 56.77-36.73 56.95-36.5 56.95-36.15L56.95-36.15 56.95-32.25Q56.95-31.45 56.2-31.45L56.2-31.45ZM56.75 0L52.8 0 52.8-26.7 56.75-26.7 56.75 0ZM76.04 0L71.54 0 61.49-26.7 65.54-26.7 73.84-3.7 82.39-26.7 86.39-26.7 76.04 0ZM100.34 0.3L100.34 0.3Q96.14 0.3 93.72-0.95 91.29-2.2 90.24-5.2 89.19-8.2 89.19-13.4L89.19-13.4Q89.19-18.7 90.27-21.68 91.34-24.65 93.79-25.85 96.24-27.05 100.39-27.05L100.39-27.05Q103.94-27.05 106.17-26.25 108.39-25.45 109.47-23.53 110.54-21.6 110.54-18.2L110.54-18.2Q110.54-15.85 109.62-14.43 108.69-13 106.97-12.38 105.24-11.75 102.89-11.75L102.89-11.75 93.14-11.75Q93.19-8.5 93.84-6.53 94.49-4.55 96.22-3.68 97.94-2.8 101.29-2.8L101.29-2.8 109.89-2.8 109.89-0.4Q107.59-0.1 105.39 0.1 103.19 0.3 100.34 0.3ZM93.09-14.35L93.09-14.35 102.59-14.35Q104.84-14.35 105.92-15.18 106.99-16 106.99-18.15L106.99-18.15Q106.99-20.45 106.32-21.73 105.64-23 104.22-23.53 102.79-24.05 100.39-24.05L100.39-24.05Q97.59-24.05 95.99-23.23 94.39-22.4 93.74-20.3 93.09-18.2 93.09-14.35ZM121.14 0L117.19 0 117.19-26.7 120.19-26.7 121.14-22.05Q122.94-24.2 125.16-25.6 127.39-27 130.29-27L130.29-27Q130.99-27 131.61-26.95 132.24-26.9 132.79-26.75L132.79-26.75 132.79-22.7Q132.14-22.8 131.39-22.88 130.64-22.95 129.89-22.95L129.89-22.95Q128.04-22.95 126.59-22.5 125.14-22.05 123.84-21.15 122.54-20.25 121.14-18.95L121.14-18.95 121.14 0ZM139.44-25.35L136.39-25.35 135.99-33.95 135.99-37.3 139.84-37.3 139.84-33.95 139.44-25.35ZM153.93 0.3L153.93 0.3Q152.93 0.3 151.48 0.25 150.03 0.2 148.46 0.1 146.88 0 145.61-0.13 144.33-0.25 143.63-0.4L143.63-0.4 143.63-2.8 154.58-2.8Q156.23-2.8 157.43-3.05 158.63-3.3 159.31-4.15 159.98-5 159.98-6.7L159.98-6.7 159.98-7.9Q159.98-9.65 158.83-10.63 157.68-11.6 155.13-11.6L155.13-11.6 151.38-11.6Q149.03-11.6 147.21-12.2 145.38-12.8 144.38-14.25 143.38-15.7 143.38-18.25L143.38-18.25 143.38-19.65Q143.38-22.15 144.36-23.75 145.33-25.35 147.41-26.15 149.48-26.95 152.78-26.95L152.78-26.95Q154.18-26.95 156.01-26.85 157.83-26.75 159.58-26.58 161.33-26.4 162.43-26.2L162.43-26.2 162.43-23.8 152.13-23.8Q149.58-23.8 148.21-22.95 146.83-22.1 146.83-19.65L146.83-19.65 146.83-18.55Q146.83-17 147.48-16.23 148.13-15.45 149.31-15.2 150.48-14.95 152.03-14.95L152.03-14.95 155.83-14.95Q159.48-14.95 161.48-13.25 163.48-11.55 163.48-8.35L163.48-8.35 163.48-6.5Q163.48-3.8 162.26-2.33 161.03-0.85 158.91-0.28 156.78 0.3 153.93 0.3ZM187.28 0L183.28 0 183.28-36.8 197.93-36.8Q199.53-36.8 201.2-36.38 202.88-35.95 204.33-34.73 205.78-33.5 206.65-31.18 207.53-28.85 207.53-25.05L207.53-25.05Q207.53-21.15 206.6-18.78 205.68-16.4 204.2-15.13 202.73-13.85 201.03-13.4 199.33-12.95 197.73-12.95L197.73-12.95Q196.98-12.95 195.53-13 194.08-13.05 192.45-13.13 190.83-13.2 189.43-13.3 188.03-13.4 187.28-13.45L187.28-13.45 187.28 0ZM187.28-33.2L187.28-16.5 197.23-16.5Q198.98-16.5 200.43-17.25 201.88-18 202.7-19.85 203.53-21.7 203.53-25L203.53-25Q203.53-28.25 202.7-30.03 201.88-31.8 200.53-32.5 199.18-33.2 197.58-33.2L197.58-33.2 187.28-33.2ZM223.63 0.3L223.63 0.3Q219.43 0.3 217-0.95 214.57-2.2 213.53-5.2 212.47-8.2 212.47-13.4L212.47-13.4Q212.47-18.7 213.55-21.68 214.63-24.65 217.07-25.85 219.53-27.05 223.68-27.05L223.68-27.05Q227.22-27.05 229.45-26.25 231.68-25.45 232.75-23.53 233.82-21.6 233.82-18.2L233.82-18.2Q233.82-15.85 232.9-14.43 231.97-13 230.25-12.38 228.53-11.75 226.18-11.75L226.18-11.75 216.43-11.75Q216.47-8.5 217.13-6.53 217.78-4.55 219.5-3.68 221.22-2.8 224.57-2.8L224.57-2.8 233.18-2.8 233.18-0.4Q230.88-0.1 228.68 0.1 226.47 0.3 223.63 0.3ZM216.38-14.35L216.38-14.35 225.88-14.35Q228.13-14.35 229.2-15.18 230.28-16 230.28-18.15L230.28-18.15Q230.28-20.45 229.6-21.73 228.93-23 227.5-23.53 226.07-24.05 223.68-24.05L223.68-24.05Q220.88-24.05 219.28-23.23 217.68-22.4 217.03-20.3 216.38-18.2 216.38-14.35ZM252.97 0L249.32 0Q246.72 0 245.02-0.85 243.32-1.7 242.52-3.6 241.72-5.5 241.77-8.65L241.77-8.65 241.92-23.45 237.67-23.45 237.67-26 241.97-26.7 242.62-34.15 245.67-34.15 245.67-26.7 253.37-26.7 253.37-23.45 245.67-23.45 245.67-8.65Q245.67-6.9 246.05-5.85 246.42-4.8 247.05-4.25 247.67-3.7 248.37-3.48 249.07-3.25 249.72-3.2L249.72-3.2 252.97-2.9 252.97 0ZM284.42 0.3L284.42 0.3Q281.12 0.3 278.67-0.45 276.22-1.2 274.62-3.18 273.02-5.15 272.24-8.85 271.47-12.55 271.47-18.5L271.47-18.5Q271.47-24.1 272.27-27.73 273.07-31.35 274.69-33.4 276.32-35.45 278.82-36.27 281.32-37.1 284.72-37.1L284.72-37.1Q286.27-37.1 288.17-36.9 290.07-36.7 291.92-36.43 293.77-36.15 295.27-35.75L295.27-35.75 295.27-32.8Q294.42-32.95 292.87-33.1 291.32-33.25 289.34-33.38 287.37-33.5 285.32-33.5L285.32-33.5Q282.67-33.5 280.77-32.9 278.87-32.3 277.69-30.68 276.52-29.05 275.97-26.1 275.42-23.15 275.42-18.45L275.42-18.45Q275.42-13.7 275.94-10.68 276.47-7.65 277.62-6.05 278.77-4.45 280.62-3.85 282.47-3.25 285.22-3.25L285.22-3.25Q288.97-3.25 291.37-3.45 293.77-3.65 295.27-3.9L295.27-3.9 295.27-0.9Q293.77-0.55 291.94-0.28 290.12 0 288.19 0.15 286.27 0.3 284.42 0.3ZM306.56 0.3L306.56 0.3Q303.62 0.3 301.71-1.45 299.81-3.2 299.81-6.4L299.81-6.4 299.81-8.3Q299.81-11.45 301.89-13.4 303.96-15.35 308.17-15.35L308.17-15.35 317.21-15.35 317.21-18.65Q317.21-20.3 316.64-21.48 316.06-22.65 314.59-23.3 313.12-23.95 310.31-23.95L310.31-23.95 302.01-23.95 302.01-26.3Q303.76-26.6 306.09-26.85 308.42-27.1 311.56-27.1L311.56-27.1Q314.81-27.15 316.96-26.3 319.12-25.45 320.14-23.63 321.17-21.8 321.17-18.85L321.17-18.85 321.17 0 318.12 0 317.37-3.05Q317.17-2.85 316.14-2.35 315.12-1.85 313.54-1.23 311.96-0.6 310.14-0.15 308.31 0.3 306.56 0.3ZM308.21-2.65L308.21-2.65Q309.12-2.6 310.26-2.85 311.42-3.1 312.62-3.43 313.81-3.75 314.84-4.1 315.87-4.45 316.51-4.7 317.17-4.95 317.21-4.95L317.21-4.95 317.21-13.35 309.06-13Q306.21-12.9 304.99-11.6 303.76-10.3 303.76-8.25L303.76-8.25 303.76-7.05Q303.76-5.45 304.44-4.48 305.12-3.5 306.14-3.1 307.17-2.7 308.21-2.65ZM332.56 0L328.61 0 328.61-26.7 331.61-26.7 332.56-22.05Q334.36-24.2 336.59-25.6 338.81-27 341.71-27L341.71-27Q342.41-27 343.04-26.95 343.66-26.9 344.21-26.75L344.21-26.75 344.21-22.7Q343.56-22.8 342.81-22.88 342.06-22.95 341.31-22.95L341.31-22.95Q339.46-22.95 338.01-22.5 336.56-22.05 335.26-21.15 333.96-20.25 332.56-18.95L332.56-18.95 332.56 0ZM359.41 0.3L359.41 0.3Q355.21 0.3 352.79-0.95 350.36-2.2 349.31-5.2 348.26-8.2 348.26-13.4L348.26-13.4Q348.26-18.7 349.34-21.68 350.41-24.65 352.86-25.85 355.31-27.05 359.46-27.05L359.46-27.05Q363.01-27.05 365.24-26.25 367.46-25.45 368.54-23.53 369.61-21.6 369.61-18.2L369.61-18.2Q369.61-15.85 368.69-14.43 367.76-13 366.04-12.38 364.31-11.75 361.96-11.75L361.96-11.75 352.21-11.75Q352.26-8.5 352.91-6.53 353.56-4.55 355.29-3.68 357.01-2.8 360.36-2.8L360.36-2.8 368.96-2.8 368.96-0.4Q366.66-0.1 364.46 0.1 362.26 0.3 359.41 0.3ZM352.16-14.35L352.16-14.35 361.66-14.35Q363.91-14.35 364.99-15.18 366.06-16 366.06-18.15L366.06-18.15Q366.06-20.45 365.39-21.73 364.71-23 363.29-23.53 361.86-24.05 359.46-24.05L359.46-24.05Q356.66-24.05 355.06-23.23 353.46-22.4 352.81-20.3 352.16-18.2 352.16-14.35ZM401.86 0.3L401.86 0.3Q398.56 0.3 396.11-0.45 393.66-1.2 392.06-3.18 390.46-5.15 389.68-8.85 388.91-12.55 388.91-18.5L388.91-18.5Q388.91-24.1 389.71-27.73 390.51-31.35 392.13-33.4 393.76-35.45 396.26-36.27 398.76-37.1 402.16-37.1L402.16-37.1Q403.71-37.1 405.61-36.9 407.51-36.7 409.36-36.43 411.21-36.15 412.71-35.75L412.71-35.75 412.71-32.8Q411.86-32.95 410.31-33.1 408.76-33.25 406.78-33.38 404.81-33.5 402.76-33.5L402.76-33.5Q400.11-33.5 398.21-32.9 396.31-32.3 395.13-30.68 393.96-29.05 393.41-26.1 392.86-23.15 392.86-18.45L392.86-18.45Q392.86-13.7 393.38-10.68 393.91-7.65 395.06-6.05 396.21-4.45 398.06-3.85 399.91-3.25 402.66-3.25L402.66-3.25Q406.41-3.25 408.81-3.45 411.21-3.65 412.71-3.9L412.71-3.9 412.71-0.9Q411.21-0.55 409.38-0.28 407.56 0 405.63 0.15 403.71 0.3 401.86 0.3ZM428.9 0.3L428.9 0.3Q426 0.3 423.83-0.3 421.65-0.9 420.2-2.4 418.75-3.9 418.05-6.58 417.35-9.25 417.35-13.4L417.35-13.4Q417.35-17.6 418.05-20.28 418.75-22.95 420.2-24.43 421.65-25.9 423.83-26.48 426-27.05 428.9-27.05L428.9-27.05Q431.8-27.05 433.98-26.45 436.15-25.85 437.6-24.38 439.05-22.9 439.78-20.23 440.5-17.55 440.5-13.4L440.5-13.4Q440.5-9.2 439.78-6.53 439.05-3.85 437.63-2.38 436.2-0.9 434-0.3 431.8 0.3 428.9 0.3ZM428.9-2.95L428.9-2.95Q430.75-2.95 432.18-3.3 433.6-3.65 434.55-4.7 435.5-5.75 436-7.85 436.5-9.95 436.5-13.4L436.5-13.4Q436.5-16.9 436-18.95 435.5-21 434.55-22.05 433.6-23.1 432.18-23.45 430.75-23.8 428.9-23.8L428.9-23.8Q427-23.8 425.6-23.45 424.2-23.1 423.25-22.05 422.3-21 421.8-18.95 421.3-16.9 421.3-13.4L421.3-13.4Q421.3-9.95 421.8-7.85 422.3-5.75 423.25-4.7 424.2-3.65 425.6-3.3 427-2.95 428.9-2.95ZM449.45 0.05L447.25 0.05Q446.45 0.05 446.45-0.75L446.45-0.75 446.45-4.75Q446.45-5.55 447.25-5.55L447.25-5.55 449.45-5.55Q450.25-5.55 450.25-4.75L450.25-4.75 450.25-0.75Q450.25-0.35 450.03-0.15 449.8 0.05 449.45 0.05L449.45 0.05Z" opacity="1" transform="matrix(1,0,0,1,0,0)" fill="#454545" class="slogan-text-1" data-fill-palette-color="secondary" id="text-1"></path></svg></g></svg></g></svg></g></svg></g></svg></g><defs></defs></svg><rect width="395.52" height="245.8484531115616" fill="none" stroke="none" visibility="hidden"></rect></g></svg></g></svg>